<svg id="visual" viewBox="0 0 1920 1080" width="1920" height="1080" xmlns="http://www.w3.org/2000/svg" xmlns:xlink="http://www.w3.org/1999/xlink" version="1.1"><rect x="0" y="0" width="1920" height="1080" fill="#002233"></rect><path d="M0 748L45.7 751C91.3 754 182.7 760 274.2 788.7C365.7 817.3 457.3 868.7 548.8 877.2C640.3 885.7 731.7 851.3 823 834C914.3 816.7 1005.7 816.3 1097 804.2C1188.3 792 1279.7 768 1371.2 788.8C1462.7 809.7 1554.3 875.3 1645.8 895C1737.3 914.7 1828.7 888.3 1874.3 875.2L1920 862L1920 1081L1874.3 1081C1828.7 1081 1737.3 1081 1645.8 1081C1554.3 1081 1462.7 1081 1371.2 1081C1279.7 1081 1188.3 1081 1097 1081C1005.7 1081 914.3 1081 823 1081C731.7 1081 640.3 1081 548.8 1081C457.3 1081 365.7 1081 274.2 1081C182.7 1081 91.3 1081 45.7 1081L0 1081Z" fill="#0066FF" stroke-linecap="round" stroke-linejoin="miter"></path></svg>